# xmcd
#
# Track frame offsets:
# 150
# 12286
# 25463
# 39510
# 50887
# 67574
# 78666
# 92676
# 107166
# 116863
#
# Disc length: 1798 seconds
#
#
# Revision: 0
# Processed by: cddbd v1.5.1PL2 Copyright (c) Steve Scherf et al.
# Submitted via: FreeRIP 2.942 
#
DISCID=8007040a
DTITLE=Gayle, Crystal - We Must Believe In Magic
DYEAR=1977
DGENRE=Country
TTITLE0=Don't It Make My Brown Eyes Blue
TTITLE1=I Wanna Come Back To You
TTITLE2=River Road
TTITLE3=It's All Right With Me
TTITLE4=Going Down Slow
TTITLE5=All I Want To Do In Live
TTITLE6=Make A Dream Come True
TTITLE7=Green Door
TTITLE8=Funny
TTITLE9=We Must Believe In Magic
EXTD=LP Rip\nUnited Artists - 1977
EXTT0=
EXTT1=
EXTT2=
EXTT3=
EXTT4=
EXTT5=
EXTT6=
EXTT7=
EXTT8=
EXTT9=
PLAYORDER=
